<svg width="70" height="72" viewBox="0 0 70 72" fill="none" xmlns="http://www.w3.org/2000/svg">
<rect width="70" height="72" fill="#1E1E1E"/>
<g id="Frame 62" clip-path="url(#clip0_0_1)">
<rect width="1280" height="4095" transform="translate(-77 -3636)" fill="#F8F4F1"/>
<g id="Frame 52">
<rect width="1280" height="400" transform="translate(-77 -69.2549)" fill="#1C1C1E"/>
<g id="C">
<path d="M45.1263 6.60888C44.5785 7.91063 44.3046 9.31251 44.3046 10.8145C44.3046 12.3165 44.5785 13.7184 45.1263 15.0202C45.7239 16.3219 46.4959 17.4735 47.4421 18.4748C48.4381 19.4261 49.5836 20.2021 50.8784 20.8029C52.1733 21.3537 53.5678 21.6291 55.0618 21.6291C56.5559 21.6291 57.9503 21.3537 59.2452 20.8029C60.54 20.2021 61.6606 19.4261 62.6068 18.4748C63.6029 17.4735 64.3748 16.3219 64.9226 15.0202C65.5203 13.7184 65.8191 12.3165 65.8191 10.8145C65.8191 9.31251 65.5203 7.91063 64.9226 6.60888C64.3748 5.30713 63.6029 4.18062 62.6068 3.22934C61.6606 2.22799 60.54 1.45195 59.2452 0.901212C57.9503 0.300404 56.5559 0 55.0618 0C53.5678 0 52.1733 0.300404 50.8784 0.901212C49.5836 1.45195 48.4381 2.22799 47.4421 3.22934C46.4959 4.18062 45.7239 5.30713 45.1263 6.60888Z" fill="white"/>
<path fill-rule="evenodd" clip-rule="evenodd" d="M2.76402 22.6309C0.921339 26.8866 0 31.4427 0 36.2992C0 41.1557 0.921339 45.7369 2.76402 50.0427C4.6067 54.2984 7.0968 58.0285 10.2343 61.2328C13.4217 64.387 17.1319 66.8905 21.3651 68.743C25.6481 70.5955 30.205 71.5217 35.0358 71.5217C38.6713 71.5217 42.1575 70.996 45.4942 69.9446C48.8808 68.8431 51.9685 67.3411 54.7574 65.4386C57.5962 63.4859 60.0863 61.1826 62.2278 58.5291C64.419 55.8254 66.1621 52.8965 67.457 49.7423C68.7518 46.538 69.5487 43.1334 69.8475 39.5285C70.1961 35.9237 69.9471 32.2187 69.1004 28.4136H56.4009C57.646 32.6193 57.9448 36.5996 57.2973 40.3547C56.6499 44.0596 55.2804 47.339 53.1887 50.1929C51.1468 52.9966 48.5322 55.2246 45.3448 56.8768C42.2073 58.479 38.771 59.2801 35.0358 59.2801C31.8983 59.2801 28.935 58.6793 26.1461 57.4777C23.407 56.276 20.9916 54.6489 18.8999 52.5961C16.858 50.4933 15.2394 48.04 14.0442 45.2362C12.8489 42.4324 12.2513 39.4534 12.2513 36.2992C12.2513 33.145 12.8489 30.166 14.0442 27.3622C15.2394 24.5584 16.858 22.1302 18.8999 20.0774C20.9916 18.0247 23.407 16.3975 26.1461 15.1959C28.8852 13.9442 31.8236 13.3183 34.9611 13.3183V1.07691C30.1801 1.07691 25.6481 2.00315 21.3651 3.85564C17.1319 5.65806 13.4217 8.16142 10.2343 11.3657C7.0968 14.57 4.6067 18.3251 2.76402 22.6309Z" fill="white"/>
</g>
</g>
</g>
<defs>
<clipPath id="clip0_0_1">
<rect width="1280" height="4095" fill="white" transform="translate(-77 -3636)"/>
</clipPath>
</defs>
</svg>
