<svg width="66" height="66" viewBox="0 0 66 66" fill="none" xmlns="http://www.w3.org/2000/svg">
<g id="stars-4 1">
<path id="Vector" d="M38.8158 15.9019C38.8147 15.6688 38.7404 15.4419 38.6035 15.2531C38.4666 15.0644 38.274 14.9234 38.0527 14.85L35.2889 13.9219C34.4379 13.6437 33.6624 13.1735 33.0222 12.5476C32.382 11.9218 31.8944 11.157 31.597 10.3125L30.6689 7.54879C30.5853 7.34389 30.4426 7.16852 30.2589 7.04508C30.0752 6.92164 29.859 6.85571 29.6377 6.85571C29.4164 6.85571 29.2001 6.92164 29.0164 7.04508C28.8327 7.16852 28.69 7.34389 28.6064 7.54879L27.637 10.3125C27.3505 11.1723 26.8677 11.9535 26.2269 12.5943C25.5861 13.2351 24.8049 13.7179 23.9452 14.0044L21.1814 14.9325C20.9765 15.0161 20.8011 15.1589 20.6777 15.3425C20.5543 15.5262 20.4883 15.7425 20.4883 15.9638C20.4883 16.1851 20.5543 16.4014 20.6777 16.585C20.8011 16.7687 20.9765 16.9115 21.1814 16.995L23.9452 17.9232C24.8049 18.2097 25.5861 18.6925 26.2269 19.3333C26.8677 19.9741 27.3505 20.7553 27.637 21.615L28.5652 24.3788C28.6487 24.5837 28.7915 24.7591 28.9752 24.8825C29.1588 25.0059 29.3751 25.0719 29.5964 25.0719C29.8177 25.0719 30.034 25.0059 30.2177 24.8825C30.4013 24.7591 30.5441 24.5837 30.6277 24.3788L31.5558 21.615C31.8423 20.7553 32.3251 19.9741 32.9659 19.3333C33.6067 18.6925 34.3879 18.2097 35.2477 17.9232L38.0114 16.995C38.2472 16.9269 38.4539 16.7828 38.5993 16.5852C38.7448 16.3875 38.8209 16.1473 38.8158 15.9019ZM58.2239 30.195L55.1095 29.1638C54.1495 28.8425 53.2773 28.3027 52.5615 27.5869C51.8456 26.871 51.3058 25.9988 50.9845 25.0388L49.9533 21.9244C49.8772 21.669 49.7206 21.445 49.5069 21.2857C49.2932 21.1265 49.0339 21.0404 48.7673 21.0404C48.5008 21.0404 48.2414 21.1265 48.0278 21.2857C47.8141 21.445 47.6575 21.669 47.5814 21.9244L46.5502 25.0388C46.2289 25.9988 45.689 26.871 44.9732 27.5869C44.2574 28.3027 43.3851 28.8425 42.4252 29.1638L39.3108 30.195C39.0554 30.2712 38.8314 30.4277 38.6721 30.6414C38.5128 30.8551 38.4268 31.1145 38.4268 31.381C38.4268 31.6475 38.5128 31.9069 38.6721 32.1206C38.8314 32.3342 39.0554 32.4908 39.3108 32.5669L42.4252 33.5982C43.3851 33.9195 44.2574 34.4593 44.9732 35.1751C45.689 35.8909 46.2289 36.7632 46.5502 37.7232L47.5814 40.8375C47.6575 41.0929 47.8141 41.317 48.0278 41.4762C48.2414 41.6355 48.5008 41.7215 48.7673 41.7215C49.0339 41.7215 49.2932 41.6355 49.5069 41.4762C49.7206 41.317 49.8772 41.0929 49.9533 40.8375L50.9845 37.7232C51.3058 36.7632 51.8456 35.8909 52.5615 35.1751C53.2773 34.4593 54.1495 33.9195 55.1095 33.5982L58.2239 32.5669C58.4793 32.4908 58.7033 32.3342 58.8626 32.1206C59.0219 31.9069 59.1079 31.6475 59.1079 31.381C59.1079 31.1145 59.0219 30.8551 58.8626 30.6414C58.7033 30.4277 58.4793 30.2712 58.2239 30.195ZM33.9483 42.7969L29.8233 41.4563C28.5692 41.0394 27.4296 40.3358 26.4952 39.4013C25.5607 38.4668 24.857 37.3272 24.4402 36.0732L23.0995 31.9482C22.9874 31.6302 22.7794 31.3549 22.5041 31.1602C22.2289 30.9654 21.9001 30.8609 21.563 30.8609C21.2258 30.8609 20.897 30.9654 20.6218 31.1602C20.3466 31.3549 20.1386 31.6302 20.0264 31.9482L18.6858 36.0732C18.2772 37.3184 17.5861 38.4523 16.6666 39.3862C15.7471 40.32 14.624 41.0285 13.3852 41.4563L9.26016 42.7969C8.94222 42.9091 8.66691 43.1171 8.47217 43.3923C8.27743 43.6675 8.17285 43.9963 8.17285 44.3335C8.17285 44.6706 8.27743 44.9995 8.47217 45.2747C8.66691 45.5499 8.94222 45.7579 9.26016 45.87L13.3852 47.2107C14.6415 47.6296 15.7825 48.3364 16.7171 49.2746C17.6517 50.2128 18.3541 51.3565 18.7683 52.6144L20.1089 56.7394C20.2211 57.0574 20.4291 57.3327 20.7043 57.5274C20.9795 57.7221 21.3083 57.8267 21.6455 57.8267C21.9826 57.8267 22.3114 57.7221 22.5866 57.5274C22.8619 57.3327 23.0699 57.0574 23.182 56.7394L24.5227 52.6144C24.9395 51.3603 25.6432 50.2208 26.5777 49.2863C27.5121 48.3518 28.6517 47.6482 29.9058 47.2313L34.0308 45.8907C34.3487 45.7785 34.624 45.5705 34.8188 45.2953C35.0135 45.0201 35.1181 44.6912 35.1181 44.3541C35.1181 44.017 35.0135 43.6881 34.8188 43.4129C34.624 43.1377 34.3487 42.9297 34.0308 42.8175L33.9483 42.7969Z" fill="#231F20"/>
</g>
</svg>
