<svg width="100" height="100" viewBox="0 0 100 100" fill="none" xmlns="http://www.w3.org/2000/svg">
<path d="M23.9993 74.9994V75.9994H24.9993H74.9994H75.9994V74.9994V71.666C75.9994 70.7264 75.7618 69.8502 75.2797 69.0612C74.81 68.2927 74.1814 67.6834 73.4017 67.2502L73.3827 67.2396L73.3632 67.2299C69.5511 65.3238 65.6965 63.8908 61.8002 62.9344C57.9037 61.978 53.9695 61.4994 49.9994 61.4994C46.0292 61.4994 42.095 61.978 38.1985 62.9344C34.3022 63.8908 30.4476 65.3238 26.6355 67.2299L26.616 67.2396L26.597 67.2502C25.8173 67.6834 25.1887 68.2927 24.719 69.0612C24.2369 69.8502 23.9993 70.7264 23.9993 71.666V74.9994ZM49.9994 48.9994C45.6833 48.9994 42.0135 47.4743 38.9356 44.3964C35.8578 41.3186 34.3327 37.6487 34.3327 33.3327C34.3327 29.0167 35.8578 25.3468 38.9356 22.269C42.0135 19.1911 45.6833 17.666 49.9994 17.666C54.3154 17.666 57.9852 19.1911 61.0631 22.269C64.1409 25.3468 65.666 29.0167 65.666 33.3327C65.666 37.6487 64.1409 41.3186 61.0631 44.3964C57.9852 47.4743 54.3154 48.9994 49.9994 48.9994ZM17.666 82.3327V71.666C17.666 69.4864 18.2242 67.4979 19.3411 65.6789C20.4623 63.8529 21.9408 62.4715 23.7861 61.5157C28.0257 59.3964 32.3278 57.8097 36.6931 56.7525C41.0603 55.6948 45.4951 55.166 49.9994 55.166C54.5036 55.166 58.9384 55.6948 63.3056 56.7525C67.6709 57.8097 71.973 59.3964 76.2127 61.5157C78.058 62.4715 79.5364 63.8529 80.6576 65.6789C81.7745 67.4979 82.3327 69.4864 82.3327 71.666V82.3327H17.666ZM49.9994 42.666C52.5583 42.666 54.7739 41.7432 56.5919 39.9252C58.4099 38.1072 59.3327 35.8917 59.3327 33.3327C59.3327 30.7737 58.4099 28.5581 56.5919 26.7402C54.7739 24.9222 52.5583 23.9993 49.9994 23.9993C47.4404 23.9993 45.2248 24.9222 43.4068 26.7402C41.5888 28.5581 40.666 30.7737 40.666 33.3327C40.666 35.8917 41.5888 38.1072 43.4068 39.9252C45.2248 41.7432 47.4404 42.666 49.9994 42.666Z" fill="black" stroke="black" stroke-width="2"/>
</svg>
